<?xml version="1.0" encoding="UTF-8" standalone="no"?>
<svg
   viewBox="0 0 1500 2000"
   fill="none"
   version="1.1"
   id="svg1"
   sodipodi:docname="germany-outline-borders.svg"
   inkscape:version="1.4.2 (ebf0e940d0, 2025-05-08)"
   xmlns:inkscape="http://www.inkscape.org/namespaces/inkscape"
   xmlns:sodipodi="http://sodipodi.sourceforge.net/DTD/sodipodi-0.dtd"
   xmlns="http://www.w3.org/2000/svg"
   xmlns:svg="http://www.w3.org/2000/svg">
  <style
     id="style1">#rheinland-pfalz {  }
#baden-wuerttemberg,#path54 {   }
</style>
  <defs
     id="defs1" />
  <sodipodi:namedview
     id="namedview1"
     pagecolor="#ffffff"
     bordercolor="#000000"
     borderopacity="0.25"
     inkscape:showpageshadow="2"
     inkscape:pageopacity="0.0"
     inkscape:pagecheckerboard="0"
     inkscape:deskcolor="#d1d1d1"
     inkscape:zoom="0.37594446"
     inkscape:cx="634.40222"
     inkscape:cy="942.95843"
     inkscape:window-width="1706"
     inkscape:window-height="1066"
     inkscape:window-x="0"
     inkscape:window-y="0"
     inkscape:window-maximized="0"
     inkscape:current-layer="svg1" />
  <path
     style="fill:none;stroke:#000000;stroke-width:2;stroke-linecap:round;stroke-linejoin:round;stroke-miterlimit:4;stroke-dasharray:none;stroke-opacity:1"
     d="m 1220,621.2 c 10.738,25.93579 26.9934,31.94836 38.543,50.81372 -4.1903,43.47067 -33.9026,-7.89724 -52.0506,13.22831 -23.3623,-11.9399 -60.5391,10.09114 -40.4924,-32.64203 0.6028,-29.09094 21.9953,-28.40052 42.954,-32.11097 5.092,-4.82205 6.9106,-5.12431 11.046,0.71097 z"
     id="berlin" />
  <path
     style="fill:none;fill-rule:evenodd;stroke:#000000;stroke-width:1.43705"
     d="m 281.58447,1887.5882 c -21.68991,-10.8877 -23.98518,-41.7862 -6.80566,-91.6166 l 5.31913,-15.4285 -3.17006,-6.5249 c -1.96078,-4.0359 -3.17007,-9.2339 -3.17007,-13.6263 0,-7.1911 2.166,-12.0853 19.08256,-43.1185 4.28202,-7.8553 16.7836,-47.3912 28.62763,-90.5341 1.02097,-3.719 7.09165,-10.6469 23.29577,-26.5854 20.61838,-20.2804 22.37658,-22.4469 29.71712,-36.6183 6.49622,-12.5414 9.0428,-15.9881 15.21439,-20.5917 9.44386,-7.0445 14.67053,-16.8266 26.11217,-48.8708 4.87119,-13.6426 11.33565,-28.6475 14.84257,-34.4516 5.7606,-9.5341 6.21284,-11.0176 6.21284,-20.3795 0,-8.3446 -0.93525,-12.4056 -5.38894,-23.3995 -2.96391,-7.3165 -5.38893,-14.6355 -5.38893,-16.2647 v -2.962 l 4.2975,3.0601 c 9.82207,6.9939 18.16359,5.0946 25.35567,-5.7734 2.07949,-3.1423 4.50328,-5.7063 5.38624,-5.6977 0.88293,0.01 7.84906,5.4715 15.48027,12.1397 16.30702,14.2492 18.15578,17.8522 15.56461,30.3338 -1.98596,9.5663 -0.78062,11.5585 3.42053,5.6536 5.68179,-7.9861 12.45233,-13.5277 24.65292,-20.1783 12.81352,-6.9846 17.93207,-11.8949 17.93207,-17.2024 0,-2.8525 0.87242,-3.2932 7.62955,-3.8535 4.38474,-0.3637 11.724,-2.5488 17.25685,-5.1379 9.93632,-4.6498 25.41031,-17.7821 25.41031,-21.565 0,-1.1731 -2.96681,-4.8957 -6.5929,-8.2725 -5.62948,-5.2424 -6.3706,-6.555 -5.07161,-8.9822 3.48556,-6.5129 23.35837,-9.7084 36.28688,-5.8349 4.94852,1.4826 5.55566,2.1681 5.55566,6.2729 0,8.0732 4.30482,11.6919 15.31101,12.8705 12.9463,1.3865 15.6616,4.2901 22.8698,24.4558 4.56621,12.7745 6.7766,16.909 11.53023,21.5668 7.19367,7.0487 16.52121,12.2777 17.41222,9.7612 1.25414,-3.5421 7.04839,-11.2013 8.37904,-11.076 0.7589,0.072 2.59736,2.5647 4.08546,5.5406 2.90115,5.8016 3.48112,19.6391 1.60892,38.3871 -1.31774,13.1957 1.52007,23.3241 13.62587,48.632 9.07879,18.9797 10.64492,21.3567 17.56916,26.6655 9.72697,7.4575 17.68163,18.8708 21.28623,30.5411 3.4299,11.1047 3.52286,15.3387 0.59331,27.02 -1.97278,7.8663 -1.994,9.463 -0.17308,13.0253 3.64054,7.1221 4.25863,12.7955 1.67543,15.3786 -1.83975,1.8398 -5.35158,2.3334 -16.60119,2.3334 -7.84731,0 -14.26784,0.5824 -14.26784,1.2943 0,0.7119 1.61036,4.7536 3.57858,8.9816 5.96597,12.8156 4.09808,22.6788 -6.25569,33.0325 -7.38176,7.3818 -14.947,10.2953 -23.27513,8.9635 -4.47115,-0.7149 -5.99163,-0.1617 -10.54666,3.8377 -11.589,10.1753 -12.08213,18.8611 -2.38618,42.0286 3.23888,7.739 6.56675,17.439 7.39527,21.5557 0.82852,4.1167 2.43262,9.923 3.56467,12.9029 2.65557,6.9903 2.63773,24.9143 -0.0391,39.331 -2.73438,14.7264 -3.01466,24.9495 -0.99917,36.4443 3.78391,21.5805 0.9848,44.4593 -5.19927,42.4965 -4.0144,-1.2741 -24.40098,1.7155 -34.81563,5.1055 -5.13745,1.6723 -16.9031,6.2556 -26.14588,10.1851 l -16.80507,7.1445 -5.46919,-4.3351 c -3.00806,-2.3842 -15.72835,-9.5413 -28.26732,-15.9045 -12.53897,-6.3632 -27.96349,-15.4696 -34.27671,-20.2364 -11.55255,-8.7229 -15.92993,-10.7893 -20.77141,-9.8056 -4.08721,0.8305 -3.26721,13.5393 1.41399,21.9148 l 3.65897,6.5466 -13.19155,-0.011 c -15.69581,-0.013 -28.51152,-1.9139 -38.75176,-5.7481 -5.7903,-2.1681 -8.8733,-4.5751 -13.57406,-10.5976 -7.52324,-9.6387 -15.53769,-13.8336 -26.34588,-13.7899 -10.31455,0.042 -18.03419,3.7333 -25.4688,12.1794 -10.20969,11.5989 -7.99489,17.3629 8.28507,21.5621 12.74724,3.2879 14.40408,4.3679 14.40408,9.3889 0,4.0611 -0.28598,4.2586 -6.10746,4.2181 -3.3591,-0.023 -15.16087,-0.98 -26.22614,-2.1257 -29.90748,-3.0968 -36.06566,-2.8857 -41.17247,1.4114 -8.02034,6.7487 -13.43588,7.3086 -29.83368,3.0843 -18.16239,-4.6788 -23.56992,-4.7053 -31.53027,-0.1546 -7.70696,4.4058 -8.05277,4.406 -16.81575,0.01 z"
     id="baden-wuerttemberg"
     sodipodi:nodetypes="cscsssssssssssscsscsssssssssssssssscsssssssssssssssssssssscssssscsssssssssssscc" />
  <path
     style="fill:none;fill-rule:evenodd;stroke:#000000;stroke-width:1.8733"
     d="m 710.98275,1963.3402 c -1.06656,-1.9929 -1.9392,-6.2633 -1.9392,-9.4897 0,-8.6455 -3.00111,-12.8034 -10.21843,-14.1574 -5.30105,-0.9945 -6.64991,-2.2387 -7.70335,-7.1055 -2.21986,-10.2556 -7.64005,-15.3716 -27.15643,-25.6321 -10.44617,-5.492 -19.41943,-11.0966 -19.94056,-12.4546 -1.25433,-3.2688 -6.44271,-3.1356 -10.96011,0.2811 -4.62252,3.4963 -8.52545,3.5652 -13.08541,0.2309 -3.37096,-2.4649 -2.88817,-2.9573 7.33025,-7.4764 22.16112,-9.8007 38.01471,-14.5551 52.64734,-15.7887 13.44083,-1.133 15.17251,-1.7278 17.3004,-5.9423 2.92277,-5.7888 3.1422,-32.0399 0.37565,-44.9398 -1.61318,-7.5221 -1.41571,-13.2184 0.93665,-27.0188 5.50339,-32.2862 4.23051,-40.4648 -14.22159,-91.3783 -6.55981,-18.0999 -0.32011,-28.4726 18.04381,-29.9955 19.71276,-1.6347 31.92685,-15.5388 30.58581,-34.8177 -0.4092,-5.8825 -1.41552,-12.1707 -2.23629,-13.9738 -1.3383,-2.94 -0.22893,-3.2782 10.75075,-3.2782 17.53146,0 21.9439,-5.9802 15.60552,-21.1501 -1.49064,-3.5676 -1.9283,-7.5719 -1.06833,-9.7746 0.80121,-2.0523 1.51601,-9.7084 1.58841,-17.0136 0.11107,-11.2032 -0.75863,-15.0638 -5.55618,-24.6646 -5.0391,-10.0841 -14.7604,-21.1781 -22.76272,-25.977 -1.50564,-0.9029 -7.7296,-12.1789 -13.83101,-25.0579 l -11.0935,-23.4162 -0.007,-28.0995 c -0.006,-23.3725 -0.56653,-29.1236 -3.33335,-34.1877 -4.25525,-7.7883 -9.82224,-7.978 -14.08876,-0.4801 -1.75513,3.0844 -3.80858,5.6133 -4.56322,5.6199 -0.75465,0.01 -5.03646,-3.5709 -9.51514,-7.9497 -6.2874,-6.1472 -9.3253,-11.3767 -13.33102,-22.9479 -6.80841,-19.6674 -9.81899,-22.7592 -23.73423,-24.3742 -11.59648,-1.3459 -11.57657,-1.3264 -13.34795,-13.0918 -0.68932,-4.5785 -10.24673,-8.1801 -22.06137,-8.3137 -23.91164,-0.2702 -35.6169,12.8315 -21.43221,23.9891 2.51489,1.9783 4.57252,4.4543 4.57252,5.5023 0,6.0442 -29.93262,22.8407 -40.70856,22.8433 -8.78396,0 -9.70951,-6.0389 -3.52752,-23.0241 7.23404,-19.8757 6.38863,-28.6596 -3.66646,-38.095 -8.13862,-7.6371 -10.50181,-28.7716 -6.15814,-55.0735 2.07058,-12.5379 2.35232,-13.0206 8.89817,-15.2461 8.81171,-2.9957 24.33517,-2.5727 39.54261,1.0777 6.69705,1.6076 14.80889,2.9353 18.02633,2.9505 5.65047,0.027 5.88035,-0.2895 6.74391,-9.2766 1.06048,-11.0366 2.62457,-13.1583 16.79362,-22.7803 6.52837,-4.4334 13.71318,-11.5849 18.15165,-18.0677 12.1145,-17.6943 23.03537,-25.9139 43.6863,-32.8805 1.74918,-0.5901 4.5884,-3.8559 6.30937,-7.2575 6.43661,-12.722 11.93144,-18.361 17.89162,-18.361 8.36302,0 12.22619,2.5795 29.84052,19.9253 8.8051,8.6709 18.92092,17.2185 22.47958,18.9946 5.11864,2.5547 8.42704,6.9471 15.83681,21.0256 7.40426,14.0681 10.74006,18.4986 15.92304,21.1481 7.16367,3.6622 14.78217,3.1237 21.91335,-1.5489 5.91261,-3.8741 5.44155,-7.383 -2.54866,-18.9844 -6.19026,-8.988 -6.64038,-10.4478 -4.60135,-14.9231 l 2.26015,-4.9604 18.62848,1.0265 c 22.5438,1.2422 32.75914,5.4359 40.03966,16.4375 4.36636,6.598 5.74913,7.4246 12.42016,7.4246 10.8934,0 12.46633,-4.4312 9.53263,-26.8547 -2.6175,-20.0068 -1.17654,-26.4927 6.5375,-29.4255 7.62219,-2.898 11.11433,-0.7264 19.10581,11.8806 4.05009,6.3893 9.24651,13.3029 11.54755,15.3635 5.46322,4.8924 17.32281,4.6589 26.94188,-0.5304 6.04054,-3.2588 9.31003,-3.7261 19.87319,-2.8405 8.47302,0.7104 13.07697,0.3581 13.9583,-1.0679 2.0903,-3.3822 7.72817,0.651 14.33673,10.2563 3.24347,4.7141 8.14337,9.3542 10.88877,10.3113 4.2486,1.481 5.304,3.384 7.0905,12.7843 1.3403,7.0525 5.8282,17.703 12.4175,29.4682 5.6753,10.1332 10.8376,20.1099 11.4717,22.1706 0.7125,2.3149 5.7697,5.8061 13.2349,9.1363 21.3736,9.535 33.2391,23.5676 30.1924,35.7067 -0.603,2.4024 -4.0551,8.7648 -7.6713,14.1385 -9.7897,14.5473 -8.5304,21.8456 7.2286,41.8927 4.7368,6.0257 12.4657,19.092 17.1753,29.0361 8.3332,17.5952 25.7294,42.7632 33.1512,47.9616 2.713,1.9002 5.0597,2.096 8.9342,0.7454 7.6162,-2.655 18.6916,0.9053 25.5332,8.208 3.1558,3.3684 10.2086,12.6902 15.6731,20.715 11.6139,17.0557 17.9503,22.8657 28.3281,25.975 5.3651,1.6074 9.0867,4.4702 12.8499,9.8847 11.3561,16.3393 25.3102,25.5975 42.7949,28.3934 6.6761,1.0675 9.7177,3.2055 19.0504,13.3904 16.5307,18.0404 20.615,27.4724 20.615,47.6063 0,18.5169 -2.1749,25.0376 -9.6382,28.897 -6.6571,3.4425 -12.6323,3.3665 -27.4476,-0.349 -11.538,-2.8936 -12.1837,-2.8702 -15.6189,0.5649 -2.1374,2.1374 -4.3988,8.4578 -5.6041,15.6632 -4.3746,26.1512 -5.6073,31.1265 -9.1582,36.9656 -4.3406,7.1375 -13.9791,13.4839 -20.578,13.5494 -8.0838,0.08 -29.5157,8.6613 -43.6767,17.4875 -18.1705,11.3252 -38.7485,30.2667 -38.7485,35.6672 0,6.8837 8.6795,21.9093 20.6767,35.7945 6.2315,7.2122 13.5071,16.7396 16.168,21.172 l 4.8381,8.0589 -3.7476,4.1175 c -5.5155,6.06 -7.9624,11.5873 -7.9624,17.9866 0,4.8047 1.5236,6.6677 9.8348,12.0257 14.9327,9.6267 17.3677,13.1237 17.0958,24.5524 -0.1277,5.3702 -1.9751,13.704 -4.1052,18.5196 -6.2912,14.2221 -16.6577,16.1065 -28.8208,5.2388 -4.5979,-4.1083 -6.0545,-7.0433 -6.3501,-12.7957 -1.1201,-21.7918 -20.9739,-33.2136 -38.8857,-22.3709 l -7.2088,4.3638 -14.1424,-7.1047 c -16.0296,-8.0528 -34.7058,-14.7551 -41.1159,-14.7551 -3.9186,0 -4.3195,0.8459 -4.3195,9.1139 0,10.2571 -4.6622,17.935 -12.8908,21.2293 -2.698,1.0801 -13.7569,2.6244 -24.5752,3.4318 -25.21687,1.8819 -60.26329,8.4407 -69.04088,12.9206 -3.75525,1.9166 -8.49657,5.33 -10.53629,7.5854 -2.0397,2.2553 -6.51616,5.2736 -9.94767,6.7074 -3.4315,1.4338 -10.61399,6.3073 -15.96106,10.83 -13.16667,11.1368 -17.24218,12.99 -28.03253,12.7469 -5.45196,-0.1228 -10.86674,0.9317 -13.20927,2.5724 -2.1834,1.5294 -6.76313,2.7806 -10.17716,2.7806 -6.43422,0 -6.00595,0.3696 -28.22308,-24.3528 l -7.5756,-8.4299 -34.31082,0.2808 c -23.59749,0.1932 -34.71769,-0.3748 -35.61393,-1.819 -2.63543,-4.2468 -4.0298,0.8863 -1.86613,6.8699 5.81418,16.0788 -1.60277,32.9508 -21.09656,47.9901 -11.07579,8.5449 -13.19769,9.0689 -15.94421,3.937 z"
     id="bayern" />
  <path
     style="fill:none;fill-rule:evenodd;stroke:#000000;stroke-width:1.8733"
     d="m 359.23256,1532.0587 c -18.16654,-9.5996 -18.44021,-9.6743 -39.83514,-10.8735 -29.30406,-1.6424 -44.62085,-8.8314 -53.34965,-25.0399 -2.39726,-4.4514 -5.25867,-6.8864 -8.96295,-7.6272 -7.75594,-1.5512 -16.36594,-8.2099 -16.36594,-12.6568 0,-2.0843 2.95045,-7.2365 6.55655,-11.4495 9.22603,-10.7785 8.98563,-18.374 -1.00072,-31.6185 -9.24892,-12.2665 -10.64182,-17.0663 -6.69898,-23.0838 4.50681,-6.8782 3.67353,-13.2232 -2.68816,-20.4688 -5.85248,-6.6656 -15.34846,-10.6301 -40.88777,-17.0703 l -11.93636,-3.0099 -13.35317,6.5378 c -7.34425,3.5958 -18.41109,7.899 -24.59297,9.5626 -14.55191,3.9161 -57.135613,6.1995 -57.135613,3.0637 0,-3.7772 8.695892,-19.4061 16.776693,-30.1525 8.70987,-11.5829 9.96347,-15.0907 9.11152,-25.496 -0.56803,-6.9377 -1.2103,-7.6164 -12.54561,-13.2559 -35.629466,-17.7264 -54.055403,-58.3618 -39.458302,-87.019 5.139449,-10.0898 29.282666,-35.3633 33.781751,-35.3633 1.807456,0 6.007001,-2.2894 9.332321,-5.0875 5.73645,-4.8269 6.9477,-5.0666 23.65452,-4.6824 11.2626,0.259 19.56621,1.4173 23.04079,3.2141 11.45188,5.922 16.85816,1.7127 16.85816,-13.1257 0,-5.5261 0.86193,-12.3145 1.9154,-15.0853 1.75165,-4.6072 2.53974,-4.9381 9.218,-3.8702 6.94397,1.1104 7.36303,0.8927 8.53292,-4.4338 2.58077,-11.7502 14.51264,-17.7251 52.50043,-26.2899 15.06631,-3.3968 18.49909,-5.0149 31.56969,-14.8804 13.44032,-10.1445 25.03085,-15.0438 35.58998,-15.0438 4.01171,0 9.76766,-7.6858 17.78109,-23.7429 4.20318,-8.4222 8.4364,-15.8039 9.40714,-16.4039 4.11351,-2.5423 14.26214,9.7688 22.27158,27.0172 8.48971,18.2826 15.16575,27.3072 22.23598,30.0584 3.07998,1.1985 4.32636,3.7731 5.31839,10.986 2.30136,16.7329 -3.8755,26.4109 -16.85653,26.4109 -11.19964,0 -11.58931,19.2355 -0.8433,41.6308 4.24862,8.8544 7.06093,17.0762 6.41594,18.757 -0.63159,1.6459 -4.48845,5.2029 -8.57078,7.9045 -4.08234,2.7016 -10.44543,9.7263 -14.14023,15.6106 -3.69481,5.8843 -11.36624,15.0712 -17.04764,20.4154 -9.46848,8.9065 -10.22838,10.224 -9.11315,15.8001 2.43154,12.1577 13.60052,19.4082 27.79616,18.0441 6.56506,-0.6308 10.61178,-2.2849 14.34886,-5.8653 18.82769,-18.0381 38.71532,-3.621 47.2333,34.2407 1.02011,4.5342 3.87187,10.6413 6.33726,13.5713 7.35886,8.7454 7.48606,11.9467 0.90002,22.6504 -7.93461,12.8954 -9.00674,21.5496 -3.88668,31.3727 2.18983,4.2012 3.98149,9.6626 3.98149,12.1363 0,2.4738 2.52896,11.3567 5.6199,19.7398 7.08862,19.2254 7.16066,26.8009 0.35729,37.5675 -5.54172,8.7701 -9.13512,17.2233 -20.15654,47.4167 -3.71054,10.1651 -8.2478,20.9508 -10.08279,23.9682 -3.66537,6.0273 -14.40947,14.6853 -18.22349,14.6853 -1.33015,0 -10.64994,-4.3497 -20.71066,-9.6661 z"
     id="rheinland-pfalz" />
  <path
     style="fill:none;fill-rule:evenodd;stroke:#000000;stroke-width:1.8733"
     d="m 200.95968,1494.7896 c -4.85906,-2.5657 -7.43924,-5.4696 -8.50122,-9.5679 -1.89456,-7.3113 -12.02652,-13.4461 -19.78092,-11.977 -2.9072,0.5508 -8.86514,3.5719 -13.23986,6.7135 -4.96365,3.5647 -9.13205,5.2602 -11.08742,4.5098 -4.71354,-1.8088 -14.97555,-20.0653 -23.09687,-41.0903 -9.18991,-23.7914 -20.16162,-36.5304 -31.462558,-36.5304 -6.468913,0 -7.016207,-0.3851 -5.989859,-4.2149 0.621256,-2.3182 1.141066,-5.1475 1.155135,-6.2874 0.01663,-1.3475 8.380046,-2.4495 23.910142,-3.1504 26.56717,-1.199 45.62147,-5.6404 61.87453,-14.4225 l 9.8905,-5.3441 17.17081,4.5952 c 20.29699,5.4318 31.15221,10.9992 35.07327,17.9883 2.59095,4.6182 2.55427,5.5947 -0.39781,10.5922 -5.61082,9.4983 -4.35439,14.6311 7.34776,30.0174 7.74876,10.1883 7.86201,15.1038 0.5401,23.443 -3.14597,3.5831 -6.46721,9.1202 -7.38053,12.3047 -1.43818,5.0147 -0.90815,6.6471 3.9576,12.1889 l 5.61817,6.3987 -7.5295,3.8413 c -10.06198,5.1332 -28.3419,5.1294 -38.07147,-0.01 z"
     id="saarland" />
  <path
     style="fill:none;fill-rule:evenodd;stroke:#000000;stroke-width:1.8733"
     d="m 495.93424,1417.3412 c -1.83145,-6.8476 -4.62408,-10.219 -17.04772,-20.5812 -8.17162,-6.8158 -15.96431,-12.3923 -17.31708,-12.3923 -1.35277,0 -5.95929,3.8119 -10.23672,8.4709 -8.50205,9.2605 -10.20103,9.397 -20.67872,1.661 -7.31788,-5.403 -12.68847,-16.3831 -11.33164,-23.1672 0.56193,-2.8097 3.69951,-9.4162 6.9724,-14.6812 6.94944,-11.1793 6.62342,-19.3947 -1.05596,-26.6091 -2.54424,-2.3902 -5.18622,-7.3722 -5.87106,-11.0711 -6.08748,-32.8789 -22.15415,-50.4444 -41.39989,-45.262 -4.15521,1.1188 -8.64546,3.3483 -9.97833,4.9543 -7.03976,8.4824 -19.75383,10.4425 -29.43748,4.5384 -11.58714,-7.0647 -11.34069,-19.284 0.49773,-24.678 2.45728,-1.1196 9.09772,-8.9928 14.75652,-17.4961 6.63507,-9.9702 12.28981,-16.3462 15.92375,-17.9548 5.33679,-2.3622 9.61294,-8.4019 9.61294,-13.5774 0,-1.2939 -3.37194,-9.3253 -7.49319,-17.8476 -10.04399,-20.7697 -10.31427,-35.8225 -0.6432,-35.8225 13.47613,0 20.76299,-11.3224 18.68201,-29.0283 -0.83658,-7.118 -0.32876,-11.44 1.85957,-15.8266 2.06361,-4.1366 2.63821,-8.3622 1.82696,-13.4355 -0.65091,-4.0706 -0.3433,-8.9709 0.68358,-10.8896 1.02688,-1.9188 9.91584,-7.3528 19.75325,-12.0757 21.94622,-10.5362 35.317,-22.8575 38.75545,-35.7135 1.25652,-4.698 3.01531,-8.5418 3.90842,-8.5418 3.61183,0 24.523,-22.1274 28.70915,-30.37885 5.31058,-10.46792 5.80806,-21.89494 1.20089,-27.58455 -3.17321,-3.91874 -3.52209,-3.95234 -10.54966,-1.01604 -9.05627,3.78396 -11.97619,1.63985 -8.0382,-5.90247 6.41738,-12.291 22.46565,-22.20096 32.65294,-20.1635 5.9068,1.18136 10.16793,-2.70648 22.4291,-20.46423 3.32729,-4.81888 7.04049,-8.76161 8.25158,-8.76161 1.21107,0 5.51587,3.48365 9.5662,7.74145 7.15962,7.52631 7.55717,7.68364 14.30581,5.6617 9.11869,-2.73202 15.08108,-9.25078 25.10982,-27.45289 10.89848,-19.78067 13.37968,-21.11936 31.62173,-17.06088 7.78598,1.73221 15.7389,4.30669 17.67317,5.72106 3.34493,2.44588 3.35781,2.74734 0.26344,6.16656 -1.84025,2.03347 -3.25339,6.56991 -3.25339,10.44403 0,3.76699 -2.12348,14.17673 -4.71884,23.13277 -5.61568,19.37857 -4.51995,25.42891 5.81736,32.1218 9.70294,6.28217 13.49536,4.87471 21.28699,-7.90014 8.58133,-14.06963 11.59285,-16.0823 18.3749,-12.28043 4.03715,2.26314 5.22053,4.4038 5.53339,10.00965 0.61009,10.93084 5.81725,17.93423 22.45242,30.19743 8.38578,6.18188 16.3065,13.14673 17.60157,15.47743 2.07691,3.73781 1.76345,4.85471 -2.65729,9.46901 -5.37933,5.6148 -6.44659,12.8951 -2.87003,19.578 1.60954,3.0075 1.60682,4.1806 -0.0109,4.7199 -5.38101,1.7936 -24.94108,17.8068 -26.8389,21.9721 -1.71285,3.7593 -1.52462,5.2868 0.99444,8.0703 5.10852,5.6449 3.82196,15.2995 -3.67816,27.6015 -10.35998,16.9929 -15.65576,29.2119 -15.67595,36.1693 -0.0164,5.6656 0.41012,6.1793 4.19662,5.0539 19.17916,-5.7005 24.92688,-1.8574 24.64333,16.4772 -0.2539,16.4191 -7.14828,29.6681 -17.01019,32.6886 -15.7239,4.816 -26.37282,12.9304 -37.14629,28.3053 -7.04284,10.0509 -13.44099,16.7649 -19.96659,20.9524 -13.48447,8.6529 -16.34363,12.3036 -17.71144,22.6145 -0.65922,4.9695 -2.14371,9.0329 -3.29886,9.0297 -1.15515,0 -10.95162,-1.7258 -21.76992,-3.8283 -19.94858,-3.8769 -27.63847,-3.695 -41.11994,0.9724 -5.4075,1.8721 -6.71181,3.3162 -6.98448,7.7334 -0.18443,2.9872 -0.91633,14.7042 -1.62644,26.0376 -1.53743,24.5373 0.29902,33.0636 9.49105,44.0658 7.85381,9.4004 8.12761,13.9738 1.83718,30.6859 -5.27669,14.0189 -5.63364,17.8923 -2.45818,26.6739 2.78852,7.7115 0.21991,10.961 -16.0989,20.3664 -6.27864,3.6188 -13.14059,7.8214 -15.24878,9.3392 -3.64621,2.6251 -3.93988,2.3604 -6.02332,-5.4294 z"
     id="hessen" />
  <path
     style="fill:none;fill-rule:evenodd;stroke:#000000;stroke-width:1.8733"
     d="m 791.95047,1233.2971 c -4.66806,-2.3013 -7.91707,-6.6783 -14.03052,-18.9017 -7.61624,-15.2282 -15.77025,-24.8507 -21.05809,-24.8507 -1.36032,0 -7.65772,-5.8478 -13.99423,-12.995 -16.12675,-18.1901 -26.64724,-24.8977 -37.84792,-24.1306 l -8.70708,0.5962 -0.81473,-9.8492 c -0.58415,-7.0618 -2.09616,-11.2253 -5.34265,-14.7116 -4.0848,-4.3865 -5.50742,-4.7633 -14.53636,-3.8496 l -10.00842,1.0127 1.22613,-5.0341 c 0.67437,-2.7688 5.8104,-13.0971 11.4134,-22.9518 8.2732,-14.551 10.18726,-19.5415 10.18726,-26.5606 0,-4.7537 -1.12147,-9.7646 -2.49215,-11.1353 -1.37069,-1.3707 -2.13151,-3.5741 -1.69071,-4.8965 1.02474,-3.0742 26.42893,-20.9784 29.76618,-20.9784 3.42487,0 3.10444,-1.9514 -1.23043,-7.4932 -4.95872,-6.3394 -4.6667,-11.5956 0.93665,-16.8597 9.12514,-8.5726 6.38273,-14.14707 -14.60744,-29.69214 -23.89547,-17.69671 -27.76991,-28.54884 -13.49204,-37.79064 4.12125,-2.66762 15.08005,-8.16272 24.35288,-12.21135 16.58912,-7.243 30.90943,-17.6602 30.90943,-22.48483 0,-1.35199 1.37901,-3.83718 3.06447,-5.52264 2.58989,-2.58989 5.63056,-2.86374 19.63395,-1.76827 18.76138,1.46767 23.58892,-0.31071 28.94155,-10.66155 2.87817,-5.56577 3.42783,-5.78497 12.35497,-4.92718 16.31169,1.56734 25.37536,12.49774 27.10084,32.68244 1.84758,21.61307 1.53451,21.37419 34.04162,25.97404 21.2648,3.00903 31.77272,7.31961 36.89315,15.13436 2.89253,4.41456 3.04129,5.96282 1.04534,10.87938 -7.75573,19.10456 -6.26989,32.48028 4.67564,42.09058 5.81231,5.1032 7.93736,5.791 17.89338,5.791 12.40657,0 15.78202,1.3137 27.11892,10.5546 9.07992,7.4012 19.21956,11.925 26.72886,11.925 2.99788,0 6.60763,1.4014 8.02169,3.1144 1.41404,1.7129 5.94293,4.5936 10.06419,6.4017 24.7897,10.8755 47.1668,1.9906 43.328,-17.2035 -0.6371,-3.1854 -0.65,-7.8168 -0.029,-10.292 0.9602,-3.8256 2.2679,-4.5002 8.7233,-4.5002 4.6731,0 10.5976,1.7603 15.4035,4.5768 8.878,5.2028 31.517,33.1734 30.5876,37.7911 -0.7638,3.7953 -9.5115,8.5305 -29.5301,15.9852 -8.6982,3.2391 -17.7522,7.8265 -20.12,10.1943 -3.8476,3.8476 -4.1822,5.4806 -3.1488,15.3681 1.4865,14.2222 -1.068,21.746 -11.0392,32.514 -5.5668,6.0115 -11.7442,10.1278 -20.6109,13.7341 -14.33018,5.8284 -20.90503,12.4054 -23.99176,23.9996 -3.61869,13.5923 -3.47793,13.497 -19.93469,13.497 -9.4569,0 -16.01726,0.8887 -17.86731,2.4203 -4.80074,3.9746 -14.33881,5.9881 -19.34648,4.0842 -2.5666,-0.9758 -8.28713,-7.4871 -13.06015,-14.8654 -9.61426,-14.8621 -13.6283,-17.7603 -22.33571,-16.1268 -12.39718,2.3257 -15.50131,10.8537 -12.26061,33.6834 2.71536,19.129 1.69322,23.587 -5.40805,23.587 -3.90961,0 -6.29033,-1.701 -9.70857,-6.9367 -6.85588,-10.501 -17.9712,-15.2573 -40.12145,-17.1678 -20.7653,-1.7911 -26.15015,-0.2522 -28.23889,8.07 -1.51172,6.0232 0.10839,10.5551 6.77001,18.9377 3.05021,3.8382 5.54584,7.7486 5.54584,8.6898 0,1.3523 -11.28829,7.2776 -13.52125,7.0974 -0.29067,-0.024 -3.26214,-1.3903 -6.60326,-3.0374 z"
     id="thueringen" />
  <path
     style="fill:none;fill-rule:evenodd;stroke:#000000;stroke-width:1.8733"
     d="m 1044.4916,1229.1341 c -6.7145,-13.1615 -12.8287,-18.7587 -24.057,-22.0229 -6.35,-1.846 -12.0174,-4.9231 -14.3559,-7.7944 -2.1252,-2.6094 -6.60361,-7.6459 -9.95213,-11.1922 -7.15787,-7.5806 -7.38246,-9.7099 -2.16169,-20.4946 4.08104,-8.4303 12.48462,-14.5733 26.75872,-19.5606 8.6901,-3.0363 22.4598,-17.6466 25.6006,-27.1635 1.2144,-3.6796 1.8447,-11.7126 1.4007,-17.8512 -0.7488,-10.3525 -0.4334,-11.4756 4.3552,-15.5049 2.8394,-2.3892 12.3926,-6.9601 21.2292,-10.1576 19.0832,-6.9051 25.1276,-10.5765 27.4442,-16.6697 1.4961,-3.9349 0.086,-6.6255 -10.7392,-20.4884 -15.8876,-20.3464 -25.5552,-26.7795 -40.2439,-26.7795 -5.8959,0 -12.0845,-0.5237 -13.7523,-1.1637 -9.3127,-3.5736 -12.983,-27.94868 -10.3406,-68.6738 1.0843,-16.7112 2.4039,-31.81734 2.9325,-33.56921 1.8843,-6.24506 43.1898,-22.10432 57.5708,-22.10432 5.7229,0 12.8328,-2.11775 22.4614,-6.69035 18.4487,-8.76127 28.6506,-8.92049 49.7681,-0.77673 18.9082,7.29179 21.154,10.29086 22.157,29.58983 1.0155,19.54068 1.7677,22.32213 6.956,25.72161 4.1318,2.70725 5.027,2.63709 11.6506,-0.91295 9.9519,-5.3339 16.1581,-4.86088 37.4481,2.85422 17.6904,6.41068 19.3838,6.67337 39.2474,6.08822 19.3062,-0.56873 21.233,-0.97321 27.5264,-5.77851 3.7219,-2.84184 11.3199,-12.52533 16.8845,-21.51886 9.6819,-15.64797 10.4727,-16.41509 18.3695,-17.82017 4.5385,-0.80756 20.0537,-4.07457 34.4781,-7.26003 14.4244,-3.18546 29.446,-5.74878 33.3813,-5.69628 8.0422,0.1073 26.4,8.20868 38.0193,16.77808 8.6926,6.41088 17.5811,22.22994 17.5811,31.28946 0,3.18595 1.686,9.09957 3.7466,13.14137 5.3501,10.49389 4.7149,19.0276 -3.6758,49.38643 -15.0494,54.45029 -23.1556,69.40389 -36.2879,66.94029 -7.9869,-1.4984 -9.467,-3.3144 -12.3625,-15.1686 -1.2583,-5.1516 -4.0684,-12.5352 -6.2446,-16.4081 -6.363,-11.3239 -11.0035,-13.3328 -32.7525,-14.1791 -18.8346,-0.7329 -19.2013,-0.6674 -19.2013,3.4293 0,2.297 2.8887,8.1116 6.4194,12.9214 3.5307,4.8097 6.9645,10.9167 7.6307,13.571 1.1181,4.4548 0.6428,4.9168 -6.1813,6.0081 -4.0659,0.6501 -18.2264,6.6686 -31.4679,13.3745 -13.2414,6.7058 -25.5855,12.1923 -27.4313,12.1923 -1.9726,0 -4.6088,2.6275 -6.3956,6.3744 -3.9176,8.2153 -9.0803,10.4225 -29.262,12.5105 -20.937,2.1661 -26.8363,5.1038 -29.4049,14.6429 -2.3253,8.6354 -6.0269,11.3167 -23.4679,16.9993 -16.1214,5.2526 -24.3181,11.1493 -27.4193,19.7256 -1.5331,4.2398 -3.5802,6.5526 -5.7999,6.5526 -5.8161,0 -15.6998,4.961 -25.8183,12.9591 -10.1336,8.0102 -18.5359,9.7552 -28.5819,5.9357 -3.5343,-1.3438 -7.087,-0.4382 -16.5355,4.2149 -6.6187,3.2595 -17.8705,8.4048 -25.004,11.4339 -19.4929,8.2773 -27.0574,17.0662 -32.7463,38.0467 -1.1873,4.3788 -2.9508,7.9615 -3.9188,7.9615 -0.968,0 -3.4229,-3.2593 -5.4552,-7.243 z"
     id="sachsen" />
  <path
     style="fill:none;fill-rule:evenodd;stroke:#000000;stroke-width:1.8733"
     d="m 155.43229,1187.0031 c -4.48104,-3.0822 -31.07308,-5.0943 -41.6833,-3.1541 l -7.67061,1.4027 -1.2727,-7.6884 c -1.69959,-10.2671 -2.95878,-12.3766 -15.936166,-26.6966 -6.12019,-6.7534 -11.100808,-13.2476 -11.068042,-14.4316 0.03277,-1.184 1.297244,-3.7891 2.809948,-5.7891 5.772648,-7.6321 3.56892,-12.1265 -14.3603,-29.2875 -19.201085,-18.3783 -18.395914,-15.0993 -9.783184,-39.8417 4.815625,-13.8341 4.957286,-15.1485 2.42285,-22.4795 -2.372516,-6.8627 -3.76078,-8.1411 -11.703262,-10.7765 -10.29059,-3.4146 -15.005344,-7.3213 -13.510777,-11.1954 0.567427,-1.4708 8.037918,-6.2564 16.601091,-10.6347 8.563172,-4.3784 17.570502,-10.09068 20.016288,-12.6941 4.307845,-4.5855 4.377232,-5.13966 2.219248,-17.72405 -1.365417,-7.96251 -1.590359,-14.66671 -0.581162,-17.3211 1.661587,-4.37031 12.903397,-16.42221 15.318354,-16.42221 3.038792,0 7.351017,-13.51741 7.351017,-23.04304 0,-7.23393 -1.90317,-15.23606 -6.392877,-26.87972 -3.516084,-9.11864 -6.986145,-19.95129 -7.71125,-24.07254 C 79.632443,863.35748 76.747383,858.204 72.10765,853.28755 60.984041,841.5005 57.022277,831.60822 60.15538,823.44348 c 1.360963,-3.54661 25.96082,-16.05175 31.576671,-16.05175 2.151534,0 10.054499,2.94377 17.562149,6.54172 12.83228,6.1497 13.96871,6.37704 18.9642,3.79378 2.92266,-1.51137 14.24625,-4.85852 25.16354,-7.43811 19.32697,-4.56668 33.29779,-10.11889 35.84907,-14.24696 0.69229,-1.12014 -0.65377,-8.65521 -2.99124,-16.7446 -4.00553,-13.86216 -4.07141,-14.98046 -1.14548,-19.44598 1.70745,-2.6059 7.11488,-7.07163 12.01651,-9.92385 7.73816,-4.50278 18.40069,-12.30209 35.17091,-25.72646 3.21149,-2.57076 8.94311,-3.93083 20.40016,-4.8408 12.35373,-0.98119 18.3723,-2.52083 26.78664,-6.8524 20.4129,-10.50826 38.00144,-22.16787 38.00855,-25.19624 0.0126,-5.3591 4.06223,-14.7976 6.34897,-14.7976 1.22583,0 6.33357,4.16745 11.35052,9.261 8.91046,9.04647 13.54322,11.75921 23.96477,14.0327 2.82033,0.61527 6.55284,3.29342 8.29445,5.95146 2.84912,4.34831 2.92931,6.50911 0.79982,21.55474 -2.22349,15.70991 -2.14071,17.10505 1.3679,23.05171 l 3.73465,6.32975 -5.44742,5.21896 c -5.95011,5.70057 -7.16084,12.82616 -2.48426,14.62073 8.72382,3.34765 43.8693,-1.56175 43.8693,-6.128 0,-2.57468 8.99028,-5.75039 22.67874,-8.01099 17.37904,-2.87009 22.66305,-6.99176 22.14565,-17.27419 -0.21382,-4.24912 0.22814,-10.80055 0.98215,-14.55874 1.74194,-8.68233 -2.66765,-18.95456 -14.75821,-34.3795 -8.56601,-10.92839 -8.68882,-11.26574 -4.43273,-12.17644 2.40755,-0.51516 7.3669,-3.23832 11.02079,-6.05147 7.24809,-5.58037 20.31765,-10.80822 27.0204,-10.80822 8.16491,0 12.96784,6.10838 13.32905,16.9519 0.34798,10.44637 1.52861,11.91038 12.03467,14.92348 8.26492,2.37035 17.31518,-1.04588 30.23071,-11.41129 12.31868,-9.88639 19.24923,-12.84387 22.49414,-9.59896 3.87955,3.87955 1.02003,9.72967 -14.89272,30.46821 -6.63551,8.64781 -8.08503,18.36957 -3.32762,22.31787 2.43195,2.01834 2.43195,2.92667 0,7.62955 -5.06064,9.78621 -3.6758,13.11323 11.28119,27.1025 11.25476,10.52658 14.07876,14.2617 14.16341,18.73298 0.17149,9.05782 3.9081,16.93366 15.60479,32.89103 8.2013,11.18875 12.04186,14.9652 14.98639,14.7362 10.62584,-0.82637 11.04375,1.87052 3.30656,21.33768 -7.14437,17.97557 -8.23939,23.11117 -5.87128,27.53601 1.59939,2.98849 1.10748,4.93773 -2.47221,9.79638 -2.4579,3.33606 -7.48652,11.56675 -11.17473,18.29045 -7.41978,13.52649 -11.04107,17.46778 -18.7384,20.39431 -4.74094,1.8025 -5.75773,1.33435 -11.92267,-5.48952 -3.96444,-4.38814 -8.43411,-7.46005 -10.85451,-7.46005 -4.36165,0 -11.47129,6.62201 -17.09553,15.92304 -6.45848,10.68065 -10.46372,14.05487 -15.25566,12.85217 -7.07386,-1.77542 -20.16705,4.37343 -28.45224,13.36177 -8.99963,9.76345 -11.37091,16.81827 -7.09141,21.09777 2.56085,2.56085 4.05646,2.64723 10.80867,0.62422 9.01769,-2.70177 10.99285,-1.21961 11.01159,8.26303 0.0251,12.71316 -23.09283,41.22234 -31.619,38.99264 -4.25525,-1.1127 -4.25945,-1.1048 -4.85604,9.2227 -0.83532,14.4604 -14.5439,27.732 -41.18623,39.8733 -16.86048,7.6836 -19.65298,11.42 -19.14727,25.6191 0.48946,13.7427 -1.67445,15.9887 -10.05618,10.4376 -4.83495,-3.2021 -8.78658,-9.1258 -15.97829,-23.9522 -6.28587,-12.9589 -11.91594,-21.7711 -16.45653,-25.7578 -11.11413,-9.7584 -12.2229,-9.0612 -25.50448,16.0373 -4.63641,8.7616 -9.69432,16.6189 -11.23979,17.4608 -1.54547,0.8418 -7.65765,2.4614 -13.58263,3.599 -8.54472,1.6405 -13.83075,4.3773 -25.55906,13.2328 -13.86221,10.4668 -16.07602,11.4551 -35.42064,15.8128 -33.71317,7.5945 -44.68667,13.0892 -49.17248,24.622 -1.17706,3.0262 -3.44127,4.2498 -8.66657,4.6833 -8.83826,0.7333 -11.77634,5.7938 -11.815,20.3501 -0.0243,9.132 -2.1925,14.8928 -5.60535,14.8928 -0.595,0 -2.74461,-1.1437 -4.77691,-2.5416 z"
     id="nordrhein-westfalen" />
  <path
     style="fill:none;fill-rule:evenodd;stroke:#000000;stroke-width:1.8733"
     d="m 753.06607,439.29572 c -11.33346,-5.65866 -22.43938,-12.54567 -24.67985,-15.30444 -4.86082,-5.98536 -8.05801,-17.65847 -8.22314,-30.02312 -0.13029,-9.7538 -3.82487,-29.4979 -5.90994,-31.58295 -2.54829,-2.54829 -10.2216,1.07254 -23.79768,11.22947 -7.59849,5.6848 -15.58348,10.89716 -17.74444,11.58302 -2.16096,0.68587 -4.91804,2.59957 -6.12685,4.2527 -1.96829,2.69175 -2.71853,2.51654 -7.18303,-1.67757 -4.87751,-4.58209 -5.04263,-4.6047 -7.64417,-1.04693 -1.46244,1.99997 -2.65898,5.16116 -2.65898,7.02487 0,4.05833 -0.31125,4.09149 -8.05095,0.85765 -8.69608,-3.63347 -17.77439,-14.85209 -25.17316,-31.10806 -3.53717,-7.77158 -9.4334,-19.07906 -13.10271,-25.12771 -8.03961,-13.25282 -14.80963,-16.79817 -37.97162,-19.88505 -8.75767,-1.16718 -19.29497,-3.7906 -23.41623,-5.82982 -7.52635,-3.72406 -19.66964,-16.89348 -19.66964,-21.33172 0,-1.30718 4.15038,-4.16213 9.22306,-6.34434 11.76668,-5.06189 15.12983,-8.5037 15.12983,-15.48367 0,-9.70567 -3.01846,-13.16251 -10.30048,-11.79639 -5.28346,0.99118 -7.19477,0.34831 -11.36619,-3.82312 -4.33014,-4.33014 -4.88734,-6.1443 -4.0819,-13.29013 1.02074,-9.05599 8.38903,-20.40678 14.50752,-22.34871 2.06132,-0.65424 3.74785,-1.96859 3.74785,-2.92078 0,-1.02048 -9.03664,-1.3025 -22.01126,-0.68691 -26.84718,1.27377 -30.84919,-0.31495 -21.15059,-8.39635 5.72981,-4.7744 6.1778,-5.76478 3.86706,-8.54906 -3.67138,-4.42374 -0.85529,-5.78665 17.50296,-8.47099 16.03316,-2.34435 28.07394,-7.26748 29.99063,-12.2623 2.39695,-6.24634 1.01268,-12.69967 -4.14564,-19.32665 C 539.70419,153.8723 528.3239,137.43444 517.33699,121.09809 500.85394,96.589562 497.3608,90.177062 497.3608,84.426984 c 0,-10.45275 6.79173,-16.067529 19.35126,-15.997856 18.98728,0.105329 32.87352,4.03222 50.73855,14.348359 14.79865,8.545458 18.36254,9.835406 27.32172,9.889076 7.92537,0.04748 11.74964,-0.969956 16.57097,-4.408651 10.09544,-7.20033 18.04264,-6.07135 37.88867,5.382467 15.42498,8.902281 17.85128,9.746021 25.14945,8.745701 10.69577,-1.46602 12.61595,0.98274 11.07196,14.11974 -0.96096,8.17636 -0.57136,10.80223 1.98154,13.35513 1.74773,1.74773 3.92801,2.71397 4.84504,2.14721 0.91706,-0.56676 2.21806,1.16366 2.89112,3.84538 1.76384,7.0277 -3.6569,17.64893 -14.41604,28.24629 -12.40235,12.21585 -12.15632,14.72949 1.28703,13.14949 5.75546,-0.67645 12.87896,-2.47848 15.83001,-4.00452 12.05417,-6.23345 16.79137,-0.82092 16.79137,19.18513 0,7.6512 0.80523,13.63292 1.83523,13.63292 1.00937,0 3.47671,-3.21758 5.48298,-7.15019 5.29366,-10.37642 8.24791,-12.21585 17.87647,-11.13057 7.66631,0.8641 26.90052,10.68589 45.78376,23.37907 9.16133,6.15819 15.90768,5.3406 34.36718,-4.165 9.00017,-4.63457 18.80704,-8.4265 21.79304,-8.4265 5.28016,0 5.46267,0.32117 6.65394,11.70812 1.36661,13.06276 -1.19633,29.79895 -5.59024,36.5049 -1.58923,2.42547 -5.16313,5.39175 -7.942,6.59174 -6.45854,2.78893 -24.39013,14.80217 -29.8737,20.01382 -7.82887,7.44066 -3.9358,17.10855 10.68224,26.5278 l 4.594,2.96018 -6.92097,9.42826 c -13.39666,18.2499 -17.47245,33.23355 -11.81642,43.44015 1.37189,2.47562 7.00925,7.53352 12.5275,11.23979 11.42443,7.67311 15.92252,14.28059 14.24024,20.91821 -1.64989,6.50982 -21.25286,26.67684 -31.70341,32.61563 -11.04857,6.27862 -17.78426,14.12849 -19.36828,22.57203 -0.67083,3.57577 -1.75809,6.49971 -2.41616,6.49765 -0.65807,-0.002 -10.46932,-4.63355 -21.80278,-10.29222 z"
     id="schleswig-holstein" />
  <path
     style="fill:none;fill-rule:evenodd;stroke:#000000;stroke-width:1.8733"
     d="m 628.6467,957.46609 c -7.60274,-6.30477 -8.00784,-11.92313 -2.09612,-29.07153 2.09792,-6.0856 3.81443,-14.46112 3.81443,-18.61226 0,-5.00436 1.28026,-8.9103 3.79955,-11.59195 4.55165,-4.84501 3.25349,-9.79464 -3.21379,-12.25349 -2.48774,-0.94583 -11.85635,-3.50833 -20.81913,-5.69445 -8.96278,-2.18613 -17.27824,-4.76354 -18.47882,-5.72762 -2.52277,-2.02578 -1.40437,-6.81468 5.7931,-24.80552 5.92894,-14.81999 6.23844,-22.69341 1.00225,-25.49573 -2.09955,-1.12364 -5.26074,-1.63586 -7.02487,-1.13825 -2.31596,0.65325 -6.14859,-3.09297 -13.78852,-13.47764 -9.62046,-13.07671 -12.51888,-19.48296 -15.56757,-34.40828 -0.63624,-3.11483 -6.03464,-9.52083 -14.13491,-16.77318 -7.20805,-6.45351 -13.10553,-12.79772 -13.10553,-14.09824 0,-1.3005 1.41181,-5.32517 3.13737,-8.94369 2.93429,-6.15328 2.93429,-6.80352 0,-10.04588 -4.94188,-5.46072 -3.75559,-10.49857 5.00725,-21.26468 12.86707,-15.80856 16.30598,-24.23338 13.19789,-32.33291 -1.34431,-3.50325 -10.33622,-3.95294 -16.31409,-0.81589 -2.25046,1.181 -7.8852,5.27262 -12.52161,9.09252 -11.12963,9.16959 -15.35393,11.23979 -22.93504,11.23979 -8.9864,0 -12.09349,-3.2926 -13.19984,-13.98792 -1.67957,-16.23653 -12.83034,-21.56605 -31.40803,-15.01145 -4.43762,1.56568 -11.05795,5.14837 -14.71182,7.96152 -3.65389,2.81315 -8.75938,5.54281 -11.34556,6.06591 -7.44482,1.50583 -6.52588,5.71448 4.39525,20.12988 11.78458,15.55509 15.21774,23.95962 12.59988,30.84512 -0.98211,2.58315 -1.32927,8.09926 -0.77146,12.25802 0.87209,6.502 0.39264,7.95585 -3.42214,10.37696 -2.43998,1.54856 -10.54078,3.8157 -18.00177,5.03806 -8.11698,1.32984 -16.17372,3.99251 -20.05947,6.62944 -8.30933,5.63887 -18.17088,8.3494 -30.42501,8.36255 -13.1964,0.0142 -14.24046,-2.84653 -4.26857,-11.6958 6.55907,-5.82068 7.65222,-7.61672 5.47432,-8.99446 -1.49671,-0.94682 -3.25126,-1.73441 -3.89899,-1.75019 -3.48334,-0.0848 -5.35549,-10.88025 -3.54366,-20.43399 3.33939,-17.60858 2.56593,-24.18753 -3.56438,-30.31785 -3.01169,-3.0117 -7.28203,-5.4758 -9.48965,-5.4758 -6.02404,0 -11.19336,-3.20072 -21.78722,-13.49013 -12.50257,-12.14326 -17.23031,-11.90929 -21.53461,1.06576 -2.82323,8.51043 -4.19745,9.85104 -20.60628,20.10218 -20.53788,12.83069 -31.63725,16.99901 -44.13328,16.57399 -4.9724,-0.1691 -10.93744,0.30426 -13.25564,1.05193 -4.15261,1.33932 -4.21492,1.11805 -4.21492,-14.96731 0,-26.45121 -6.39631,-34.6893 -26.93384,-34.6893 -8.95962,0 -10.77497,-0.65301 -14.32114,-5.15157 -4.85702,-6.16147 -4.36329,-13.55669 1.87291,-28.05314 l 4.17464,-9.70421 11.51549,0.9706 c 21.04972,1.7742 31.38561,-8.6875 34.10405,-34.51919 0.96424,-9.16258 3.44399,-16.79805 9.23873,-28.44722 12.52483,-25.17863 13.97955,-31.42119 13.53272,-58.07226 -0.35434,-21.13454 0.042,-24.37875 4.06749,-33.29428 2.45305,-5.43293 6.87686,-11.91164 9.8307,-14.39713 2.95383,-2.48549 5.37061,-4.99498 5.37061,-5.57666 0,-0.58167 -5.09977,-1.05759 -11.33282,-1.05759 -13.42583,0 -21.12926,-3.46801 -26.20899,-11.79906 -6.95614,-11.40844 -4.52527,-21.03286 11.77229,-46.60948 10.61337,-16.65612 15.3992,-21.45006 25.11975,-25.16237 7.05561,-2.69456 9.99958,-2.81535 21.88564,-0.89792 11.88319,1.91696 17.20766,1.69911 39.52096,-1.61703 29.39512,-4.36862 33.10976,-4.53606 42.53749,-1.9174 6.26456,1.74006 7.21723,2.96736 11.70812,15.08312 5.15279,13.9015 6.31697,29.85536 3.16807,43.41525 -1.49317,6.42985 -1.1601,7.42087 3.93501,11.70811 11.86027,9.97975 27.30191,3.47839 29.06652,-12.23781 0.80207,-7.14362 0.22691,-9.13593 -3.9309,-13.61612 -5.2727,-5.68154 -6.17182,-10.49754 -2.62248,-14.04689 3.344,-3.344 8.84523,-2.72016 19.29497,2.18808 14.66578,6.8885 15.83146,9.00448 14.0682,25.53674 -0.82416,7.72736 -2.13414,17.74457 -2.91104,22.26046 -1.14007,6.62686 -0.90714,8.04225 1.20748,7.33737 1.49414,-0.49804 3.18296,-4.80862 3.92999,-10.03104 0.72047,-5.03673 2.67606,-12.73482 4.34577,-17.10688 2.64731,-6.93185 3.46692,-7.67996 6.40428,-5.84555 5.07758,3.171 9.1362,0.59155 10.49894,-6.6726 2.62075,-13.96975 -4.50202,-27.40773 -14.52741,-27.40773 h -5.74797 l 0.99729,-15.98534 c 1.20768,-19.35762 7.98829,-34.9407 18.12463,-41.65372 l 6.41738,-4.25005 4.82241,4.48948 c 2.65233,2.46922 6.66372,5.43547 8.91419,6.59167 5.57484,2.86415 23.31882,2.53416 38.05745,-0.70775 14.87697,-3.27234 28.21959,-3.52843 34.50994,-0.66236 2.84515,1.29634 10.11973,10.6478 18.3528,23.59254 7.50165,11.79472 16.78703,25.75059 20.63416,31.01302 7.51437,10.27879 19.87566,19.69592 28.00009,21.33113 4.17307,0.83991 5.24225,2.31398 6.32442,8.71927 1.62278,9.60513 10.378,18.80977 20.58744,21.64423 4.07293,1.13077 13.83521,2.06065 21.694,2.06639 10.40582,0.008 14.9224,0.77404 16.62073,2.8204 3.1179,3.75685 7.37089,3.54187 18.76285,-0.94842 l 9.53507,-3.75837 16.25971,8.57667 c 11.01406,5.80971 17.76342,8.28922 20.92075,7.68566 8.51443,-1.62763 18.01658,4.07111 30.16828,18.09288 6.40492,7.3906 15.95533,16.58352 21.22314,20.42872 5.26783,3.8452 11.47454,8.36779 13.79271,10.05022 2.486,1.80422 8.69175,3.25632 15.12928,3.54012 12.88243,0.56793 17.71841,2.79792 22.0801,10.18168 4.13267,6.99606 8.40325,8.84131 24.29699,10.49843 7.12653,0.74303 14.82841,2.31055 17.1153,3.48337 l 4.15797,2.13241 -7.10439,11.21727 c -7.94591,12.54595 -18.59863,22.74946 -25.58055,24.50181 -2.54686,0.63921 -8.22155,0.65596 -12.61041,0.0372 -23.51642,-3.31537 -27.40909,-3.35433 -37.65122,-0.37685 -19.27891,5.60451 -40.57724,20.54677 -40.57724,28.46771 0,6.81315 5.85325,17.07806 16.94812,29.72208 12.40587,14.13804 15.38267,20.89025 12.93224,29.33385 -2.27943,7.85431 -1.03936,14.02904 6.13583,30.55253 4.71061,10.84793 5.47827,14.63359 4.63137,22.83927 -0.77347,7.49411 -0.15801,11.5173 2.58487,16.89731 1.98002,3.88368 3.59179,9.20121 3.58173,11.81673 -0.0212,5.50184 -6.93392,21.07097 -13.92106,31.35347 -4.80784,7.07538 -4.89988,7.11198 -25.66552,10.21015 -26.16723,3.90409 -30.87792,6.82567 -30.11729,18.67889 0.28959,4.51281 0.33281,11.99855 0.096,16.63497 -0.23679,4.63641 -0.47372,15.66647 -0.52653,24.51123 -0.0901,15.08028 0.35422,16.95611 7.1365,30.13255 7.08483,13.7642 7.17052,14.17111 4.19553,19.92409 -4.55605,8.81046 -8.79459,10.27071 -25.5154,8.79058 -18.09434,-1.6017 -22.07322,-0.40011 -25.45196,7.68632 -3.36085,8.04362 -13.1857,15.20114 -31.94325,23.27097 -8.07905,3.47576 -17.86003,8.27624 -21.73549,10.66773 -6.58446,4.0632 -7.40713,4.16159 -12.55174,1.50122 -11.63286,-6.01559 -19.19857,-1.70155 -28.29868,16.13615 -2.03233,3.98368 -4.73173,7.22037 -5.99868,7.19266 -1.26697,-0.0277 -5.18426,-2.4393 -8.70511,-5.35904 z M 526.62476,531.10316 c 5.62113,-3.68311 10.71472,-14.7269 9.11579,-19.76467 -0.61858,-1.94898 -6.54465,-6.21185 -13.16905,-9.47303 -12.81536,-6.30899 -53.10567,-18.9019 -55.58097,-17.37208 -4.33429,2.67873 4.23225,20.24984 17.8867,36.688 11.13873,13.40956 29.69413,17.81946 41.74753,9.92178 z"
     id="niedersachsen" />
  <path
     style="fill:none;fill-rule:evenodd;stroke:#000000;stroke-width:1.8733"
     d="m 878.6409,507.73447 c -4.33586,-4.79107 -14.95119,-8.22981 -20.84154,-6.75144 -4.67869,1.17428 -17.6249,-3.57645 -17.6249,-6.46762 0,-0.81502 -3.71638,-3.65979 -8.25861,-6.32171 -4.54224,-2.66194 -14.3238,-11.55698 -21.73681,-19.76675 -9.65616,-10.69402 -15.81369,-15.81881 -21.71417,-18.07222 -4.52978,-1.72995 -8.23597,-3.47939 -8.23597,-3.88767 0,-0.40827 1.20888,-3.63557 2.6864,-7.17178 1.89106,-4.52594 6.46664,-8.88072 15.45472,-14.70893 12.37034,-8.02141 24.87737,-19.74513 31.22443,-29.26883 7.18765,-10.78501 1.93819,-22.60794 -14.71635,-33.14439 -15.33025,-9.69864 -15.62745,-20.08987 -1.20559,-42.15257 15.85341,-24.25269 27.70147,-31.11709 43.85623,-25.40892 20.20574,7.13954 27.09162,10.1018 32.57731,14.01453 7.09604,5.06132 12.16735,5.35652 16.087,0.93644 1.59891,-1.80305 6.67197,-11.28663 11.27347,-21.07461 12.98082,-27.6119 22.13498,-34.28757 50.09511,-36.53188 27.56593,-2.21267 28.68545,-2.75781 50.90627,-24.78854 l 19.9998,-19.82862 -1.0451,7.79179 c -1.4645,10.91901 1.5219,10.16007 17.0384,-4.32993 17.4457,-16.2916 21.317,-17.90062 41.9296,-17.42711 15.9854,0.36721 17.3818,0.0762 26.3335,-5.48849 l 9.4529,-5.87626 1.2046,5.48445 c 2.1294,9.69506 15.6244,27.41051 28.6328,37.58743 6.8991,5.39743 16.8562,13.80427 22.1268,18.68186 13.1468,12.1664 19.3793,13.14688 35.5294,5.58934 l 12.427,-5.81527 3.6807,4.67927 c 4.5576,5.79402 7.9289,5.92652 11.8149,0.46436 l 2.9986,-4.21492 5.0691,5.8635 c 2.788,3.22493 9.5501,8.23616 15.0268,11.13607 l 9.9577,5.27255 -10.6553,2.65321 c -7.9042,1.96815 -10.9976,2.09947 -11.9808,0.5086 -0.729,-1.17953 -2.6356,-1.64182 -4.237,-1.02731 -2.4499,0.94012 -2.7589,-0.23802 -1.9483,-7.42974 1.0222,-9.06824 -1.5335,-11.54625 -5.0778,-4.92359 -4.3122,8.05745 -2.2544,17.90274 6.8595,32.81803 7.5089,12.28868 8.47,14.92576 6.5565,17.98971 -2.9308,4.69289 -2.8307,5.51437 0.6714,5.51437 2.5418,0 8.692,-11.12582 12.7927,-23.14227 0.7565,-2.21686 2.2584,-3.06075 4.1532,-2.33364 1.6325,0.62645 5.0895,1.67141 7.6822,2.32213 4.5031,1.13021 4.6566,0.89943 3.4327,-5.15956 -0.7047,-3.48848 -1.7345,-8.02865 -2.2884,-10.08928 -1.5224,-5.66334 13.906,9.66791 18.3053,18.19003 6.6065,12.79788 5.8928,13.58581 -15.4837,17.09474 -26.7209,4.38621 -33.7292,10.1614 -23.546,19.40307 8.2415,7.47947 13.7903,9.79488 30.4255,12.6958 10.2528,1.78795 18.0968,4.20587 20.0468,6.17943 1.8226,1.84475 4.0916,8.8941 5.2642,16.35526 1.1335,7.2122 6.1785,25.75786 11.2112,41.21257 5.0326,15.45472 9.6964,30.04056 10.3639,32.41298 2.3375,8.30784 -20.5748,23.91953 -29.8702,20.35257 -4.4689,-1.71488 -3.5654,-6.03918 2.7694,-13.25404 6.1889,-7.04876 9.861,-16.89062 8.2252,-22.04472 -1.6081,-5.06647 -7.1637,-5.76401 -25.3769,-3.18622 -19.4666,2.75519 -21.5271,2.07371 -26.6969,-8.82985 -4.4302,-9.34345 -8.471,-13.88056 -12.3622,-13.88056 -4.2869,0 -38.1977,33.72106 -41.2001,40.96955 -3.1251,7.54448 -10.7414,13.94251 -25.2011,21.16979 -6.2859,3.14186 -14.1124,7.727 -17.3922,10.18919 -3.2797,2.46219 -8.393,4.47672 -11.3628,4.47672 -2.9697,0 -12.0327,3.37193 -20.1399,7.49319 -15.6999,7.98096 -24.6848,9.30917 -35.7954,5.29153 -3.3487,-1.21092 -6.4636,-3.63583 -6.922,-5.38868 -1.0326,-3.94863 -21.3654,-10.9735 -37.5831,-12.98477 -9.047,-1.12197 -15.602,-3.69246 -29.3503,-11.50936 -21.8298,-12.41174 -30.9179,-13.44685 -39.02521,-4.44485 -7.8497,8.71601 -22.86271,20.6954 -31.72584,25.31512 -6.94735,3.62116 -9.7458,4.01975 -20.66672,2.94363 -14.47837,-1.42667 -15.63334,-0.67742 -26.51203,17.1987 -7.3598,12.09377 -9.9376,13.55146 -23.96459,13.55146 -8.62273,0 -11.80868,-0.81335 -14.39941,-3.67607 z"
     id="mecklenburg-vorpommern" />
  <path
     style="fill:none;fill-rule:evenodd;stroke:#000000;stroke-width:1.8733"
     d="m 1237.5512,933.74157 c -18.9995,-6.98864 -29.9672,-8.02787 -38.3859,-3.63724 -11.3383,5.91337 -13.4048,3.09587 -14.7884,-20.16325 -1.0796,-18.14803 -3.6402,-23.90595 -12.7189,-28.60073 l -5.6749,-2.93462 6.2656,-7.31988 c 5.6931,-6.65109 6.481,-9.08239 8.6231,-26.60966 1.2966,-10.60939 1.8354,-20.65046 1.1972,-22.31348 -1.6726,-4.3587 -9.2322,-7.27778 -18.8474,-7.27778 -6.4738,0 -12.7554,-2.29978 -27.9522,-10.23365 -23.6718,-12.35843 -37.6738,-16.76999 -47.798,-15.05952 -6.5682,1.1097 -8.7469,0.32468 -20.8775,-7.52257 -16.524,-10.6893 -31.3281,-25.51588 -36.1466,-36.20142 -3.4919,-7.74352 -3.5044,-8.75261 -0.4405,-35.51019 3.7739,-32.95837 4.0099,-48.28441 0.7758,-50.37756 -1.2879,-0.83354 -4.8706,-2.35852 -7.9615,-3.38883 -7.2488,-2.41628 -8.1081,-8.74896 -3.0292,-22.32373 5.5258,-14.76884 7.0731,-42.89187 2.9297,-53.24725 -4.1629,-10.4042 -13.2787,-15.28401 -28.55146,-15.28401 -11.80182,0 -16.74029,-2.65436 -41.81566,-22.47529 -15.84418,-12.5241 -32.40343,-19.95579 -47.9059,-21.49988 -7.40728,-0.73778 -14.99414,-2.49867 -16.85969,-3.91308 -2.99694,-2.2722 -2.07708,-2.5786 7.89938,-2.63124 13.86377,-0.0732 16.76818,-1.98063 27.05393,-17.76781 4.39487,-6.7455 8.94538,-12.34561 10.11225,-12.44469 1.16688,-0.0991 8.55097,-0.30982 16.4091,-0.46832 13.39142,-0.27011 14.97037,-0.75815 25.17518,-7.78138 5.98822,-4.12125 14.99662,-11.66596 20.01868,-16.76602 12.17939,-12.36855 16.27329,-12.2984 38.73289,0.66379 13.583,7.83925 19.7345,10.24882 29.1435,11.41569 17.6333,2.18684 36.5559,8.90188 36.5559,12.9726 0,4.13787 10.8848,7.63698 23.7565,7.63698 7.112,0 12.7064,-1.74577 24.0126,-7.49319 9.2319,-4.69298 17.303,-7.4932 21.5979,-7.4932 4.6008,0 8.0319,-1.30096 10.4262,-3.95325 1.9627,-2.17429 9.2182,-6.80092 16.1234,-10.28139 15.8365,-7.98227 24.6803,-15.7104 28.2834,-24.71534 1.5528,-3.88092 4.927,-8.18205 7.4981,-9.55807 2.5711,-1.37603 9.8718,-8.30652 16.2238,-15.4011 13.3397,-14.89936 16.2624,-14.98712 21.7367,-0.65268 1.7938,4.69677 4.7622,9.34281 6.5965,10.32453 4.4647,2.38939 14.6727,2.25049 29.0303,-0.39501 18.8179,-3.46733 21.7271,2.51411 8.8985,18.29592 -9.4734,11.65432 -7.8596,21.35 3.5536,21.35 6.9945,0 15.9648,-3.87437 23.3092,-10.06761 3.2713,-2.75852 6.4391,-4.22065 7.0394,-3.24918 3.2057,5.18691 2.9454,19.36324 -0.6558,35.70867 -2.1458,9.73975 -3.9015,19.35332 -3.9015,21.3635 0,2.0821 -4.767,7.96878 -11.0778,13.67971 -12.7512,11.53914 -18.895,22.6954 -18.895,34.31048 0,8.98202 3.0767,12.5627 24.6331,28.66821 5.8209,4.34895 18.0623,14.65106 27.2033,22.89357 9.1409,8.24252 19.5521,17.20279 23.136,19.91171 l 6.5161,4.92529 -6.0882,18.5871 c -3.4998,10.6849 -6.0882,22.47595 -6.0882,27.73428 0,11.58805 5.6178,23.40093 13.2818,27.92813 9.4666,5.59207 14.4944,19.16347 16.5802,44.75516 1.9506,23.93126 1.6956,25.42726 -8.1011,47.53827 -9.5193,21.48464 -9.1669,24.51459 5.4019,46.45787 10.0922,15.20056 12.1715,19.66223 12.1478,26.06519 -0.016,4.24892 -0.648,8.69398 -1.405,9.8779 -0.7866,1.2302 -6.1926,2.1504 -12.6161,2.14749 -6.1819,-0.003 -19.9898,2.16293 -30.6842,4.81275 -10.6945,2.64984 -25.897,5.80563 -33.7833,7.0129 l -14.3389,2.19504 -11.1759,17.95971 c -14.735,23.67941 -19.3395,26.43908 -43.9585,26.34639 -15.5466,-0.0585 -20.0162,-0.88352 -35.3553,-6.52573 z m 18.4964,-245.30534 c 1.2831,-1.54603 2.7368,-6.39433 3.2305,-10.77401 0.8714,-7.7315 0.4796,-8.426 -13.4746,-23.88353 -7.9047,-8.75626 -16.8838,-20.27761 -19.9537,-25.60301 -7.7318,-13.4128 -9.2734,-14.43356 -16.9051,-11.19345 -3.4578,1.46805 -11.2518,3.58469 -17.32,4.70367 -17.4407,3.21604 -23.908,9.08305 -27.2617,24.73131 -0.9785,4.56538 -2.799,11.72355 -4.0456,15.90706 -2.5917,8.69735 -1.2197,16.74092 3.1409,18.41422 1.6401,0.6294 10.288,1.68073 19.2175,2.33629 8.9294,0.65558 17.7671,1.97948 19.6393,2.94203 2.3775,1.22241 4.7582,0.86268 7.8955,-1.19301 6.0526,-3.96577 9.5238,-3.69266 20.5466,1.61651 10.8292,5.21592 21.8934,6.0891 25.2904,1.99592 z"
     id="brandenburg" />
  <path
     style="fill:none;fill-rule:evenodd;stroke:#000000;stroke-width:1.37427"
     d="m 502.0299,531.15699 c -2.79135,-1.02603 -7.02025,-3.30153 -9.39757,-5.05667 -8.06485,-5.95416 -24.69392,-31.31141 -24.69392,-37.65514 0,-2.99178 5.17417,-2.02676 26.79823,4.99807 18.06826,5.86968 34.66725,13.31981 37.61992,16.88495 2.39937,2.89706 1.20428,9.33334 -2.76914,14.91349 -5.34219,7.50242 -16.64135,9.92782 -27.55752,5.9153 z"
     id="bremen" />
  <path
     style="fill:none;fill-rule:evenodd;stroke:#000000;stroke-width:1.97116"
     d="m 711.32073,439.49767 c -1.12328,-1.12328 -10.56236,-2.7612 -20.97573,-3.63981 -25.62952,-2.16247 -31.63697,-6.38983 -37.69742,-26.52718 -2.05495,-6.82809 -2.28432,-11.16983 -0.86217,-16.32042 1.80522,-6.53798 2.17422,-6.80331 5.40073,-3.88336 5.87692,5.31854 4.82738,5.75332 36.50638,-15.12298 20.34563,-13.40766 19.78297,-13.64563 22.94027,9.7021 4.37458,32.34933 5.71424,36.62066 13.85146,44.16353 l 7.58042,7.02674 -9.2955,3.3316 c -10.72588,3.84427 -14.59255,4.12566 -17.44844,1.26978 z"
     id="hamburg" />
  <path
     style="fill:none;fill-rule:evenodd;stroke:#000000;stroke-width:1.26244"
     d="m 1011.8495,1051.4662 c -7.847,-1.5093 -14.65352,-4.3882 -20.78361,-8.7905 -3.26283,-2.3431 -7.8429,-4.1646 -12.29321,-4.8889 -8.42466,-1.3712 -14.22444,-4.1687 -24.40172,-11.7704 -10.96147,-8.1874 -13.87673,-9.3202 -26.47865,-10.2892 -13.8954,-1.0684 -19.12468,-4.0694 -23.94453,-13.7416 -4.08116,-8.18984 -4.06858,-14.39699 0.0556,-27.45244 3.75443,-11.88485 3.173,-15.02595 -3.93683,-21.26847 -6.12503,-5.37785 -16.23501,-8.65134 -37.15094,-12.02903 -18.77154,-3.03139 -25.60967,-5.28436 -26.99481,-8.89398 -0.41287,-1.07592 -1.35727,-6.83775 -2.09867,-12.80407 -2.31197,-18.60516 -6.66979,-27.25735 -16.39321,-32.54769 -7.65681,-4.16593 -20.19716,-5.62934 -23.12761,-2.69889 -1.98658,1.98659 -2.12116,1.89492 -2.12116,-1.44481 0,-1.96127 -2.84048,-9.52731 -6.31219,-16.81339 l -6.31219,-13.24744 v -31.30682 c 0,-39.91824 -2.02212,-37.17281 31.37281,-42.59488 8.57579,-1.39238 16.64974,-3.09751 17.94213,-3.78917 5.64813,-3.02278 18.73825,-27.5023 19.74507,-36.92477 0.40119,-3.75451 -0.39028,-7.84497 -2.68459,-13.87447 -2.56583,-6.74307 -3.2535,-10.80676 -3.2535,-19.22618 0,-9.68437 -0.49831,-11.88012 -5.36536,-23.6419 -5.22712,-12.63192 -5.35726,-13.29128 -5.05073,-25.59039 0.29753,-11.93839 0.1148,-12.96738 -3.3628,-18.93658 -2.02259,-3.4717 -6.7853,-9.95249 -10.58381,-14.40174 -8.45135,-9.89921 -14.43724,-19.58389 -15.55324,-25.16388 -0.77469,-3.87346 -0.30459,-4.69399 6.22928,-10.87268 8.05721,-7.61922 23.84394,-15.96288 36.10417,-19.08189 7.46738,-1.89971 9.43495,-1.90239 25.24877,-0.0344 19.48079,2.30118 23.4299,1.74186 31.20113,-4.41911 8.79081,-6.96929 25.55225,-29.90329 23.85823,-32.64427 -2.85703,-4.62278 13.47959,5.17351 33.21106,19.91506 8.56505,6.39904 17.37056,12.5658 19.5678,13.70392 2.19722,1.13812 8.89043,2.52227 14.87378,3.07588 18.15723,1.68001 25.88163,6.44797 29.00723,17.9049 2.3762,8.70972 0.6863,33.55377 -3.1746,46.6719 -3.8672,13.13932 -4.2208,21.18961 -1.0475,23.85034 1.2151,1.01884 4.6236,2.89746 7.5746,4.17471 4.8115,2.08251 5.3847,2.79118 5.5523,6.86466 0.3738,9.08458 -0.389,21.44624 -2.8008,45.38955 -1.8297,18.16524 -2.1299,25.66642 -1.1695,29.23273 3.7005,13.74266 23.7135,34.18535 45.5088,46.48587 6.1985,3.49816 7.9867,3.90682 16.3864,3.74445 11.9458,-0.23088 17.6604,1.61363 44.3253,14.30714 17.9111,8.52635 22.2868,10.11264 29.6673,10.75507 10.3655,0.90227 16.6365,3.51471 17.594,7.32942 0.9535,3.79941 -1.6662,27.568 -3.9141,35.51157 -1.1173,3.9483 -3.8208,8.69828 -7.0183,12.33076 -3.3374,3.79153 -4.9242,6.62948 -4.4287,7.92075 0.5864,1.5279 0.237,1.80279 -1.4514,1.14203 -15.3643,-6.01292 -21.3902,-7.24694 -32.521,-6.65983 -9.7439,0.51395 -13.1006,1.34249 -23.5572,5.81456 -7.7335,3.30745 -15.7635,5.71165 -21.9514,6.57231 -5.3664,0.74639 -14.6495,2.75981 -20.6292,4.47426 -13.1625,3.77389 -36.1177,14.68761 -37.2837,17.72598 -1.3632,3.55242 -3.1383,24.71539 -4.0075,47.7769 -1.1672,30.9687 2.1996,51.23535 9.2827,55.87635 1.9948,1.307 7.1817,2.43 13.4539,2.9128 9.2737,0.7139 9.5405,0.8037 2.9172,0.9812 -6.7058,0.1798 -7.3984,0.4739 -8.6385,3.6672 -0.7659,1.9721 -1.0252,6.7436 -0.6004,11.0464 0.5758,5.8323 0.2398,8.571 -1.461,11.9065 -3.7435,7.3416 -15.0511,11.0425 -26.8214,8.7786 z"
     id="sachsen-anhalt" />
</svg>
